<mxfile host="app.diagrams.net" modified="2024-03-25T14:43:01.103Z" agent="Mozilla/5.0 (Windows NT 10.0; Win64; x64) AppleWebKit/537.36 (KHTML, like Gecko) Chrome/123.0.0.0 Safari/537.36" etag="cNjZk-Z0acF4jnaStroG" version="24.0.7" type="device">
  <diagram name="第 1 页" id="KMGUz1CNVF3bbjgXP_zS">
    <mxGraphModel dx="1434" dy="879" grid="1" gridSize="10" guides="1" tooltips="1" connect="1" arrows="1" fold="1" page="1" pageScale="1" pageWidth="827" pageHeight="1169" math="0" shadow="1">
      <root>
        <mxCell id="0" />
        <mxCell id="1" parent="0" />
        <mxCell id="qpwxXITlCsxlHyddIbBQ-32" value="" style="rounded=1;whiteSpace=wrap;html=1;glass=1;shadow=1;fillColor=#76608a;fontColor=#ffffff;strokeColor=#432D57;swimlaneFillColor=default;" vertex="1" parent="1">
          <mxGeometry x="460" y="255" width="460" height="325" as="geometry" />
        </mxCell>
        <mxCell id="qpwxXITlCsxlHyddIbBQ-1" value="用户下订单(生产者)" style="rounded=1;whiteSpace=wrap;html=1;fillColor=#d5e8d4;strokeColor=#82b366;" vertex="1" parent="1">
          <mxGeometry x="157" y="314.5" width="180" height="40" as="geometry" />
        </mxCell>
        <mxCell id="qpwxXITlCsxlHyddIbBQ-4" style="edgeStyle=orthogonalEdgeStyle;rounded=0;orthogonalLoop=1;jettySize=auto;html=1;exitX=0.5;exitY=1;exitDx=0;exitDy=0;flowAnimation=1;shadow=1;strokeWidth=2;strokeColor=#009900;" edge="1" parent="1" source="qpwxXITlCsxlHyddIbBQ-2">
          <mxGeometry relative="1" as="geometry">
            <mxPoint x="575" y="410" as="targetPoint" />
          </mxGeometry>
        </mxCell>
        <mxCell id="qpwxXITlCsxlHyddIbBQ-2" value="正常(exchange)" style="rounded=1;whiteSpace=wrap;html=1;fillColor=#d5e8d4;strokeColor=#82b366;" vertex="1" parent="1">
          <mxGeometry x="500" y="317" width="150" height="35" as="geometry" />
        </mxCell>
        <mxCell id="qpwxXITlCsxlHyddIbBQ-3" style="edgeStyle=orthogonalEdgeStyle;rounded=0;orthogonalLoop=1;jettySize=auto;html=1;exitX=1;exitY=0.5;exitDx=0;exitDy=0;entryX=-0.05;entryY=0.5;entryDx=0;entryDy=0;entryPerimeter=0;flowAnimation=1;shadow=1;strokeColor=#009900;strokeWidth=2;" edge="1" parent="1" source="qpwxXITlCsxlHyddIbBQ-1" target="qpwxXITlCsxlHyddIbBQ-2">
          <mxGeometry relative="1" as="geometry" />
        </mxCell>
        <mxCell id="qpwxXITlCsxlHyddIbBQ-26" style="edgeStyle=orthogonalEdgeStyle;rounded=0;orthogonalLoop=1;jettySize=auto;html=1;entryX=0.5;entryY=0;entryDx=0;entryDy=0;flowAnimation=1;shadow=1;strokeWidth=3;strokeColor=#CC0000;" edge="1" parent="1" source="qpwxXITlCsxlHyddIbBQ-5" target="qpwxXITlCsxlHyddIbBQ-25">
          <mxGeometry relative="1" as="geometry" />
        </mxCell>
        <mxCell id="qpwxXITlCsxlHyddIbBQ-5" value="" style="shape=table;startSize=0;container=1;collapsible=0;childLayout=tableLayout;fontSize=16;fillColor=#1ba1e2;fontColor=#ffffff;strokeColor=#006EAF;swimlaneFillColor=default;rounded=1;shadow=1;" vertex="1" parent="1">
          <mxGeometry x="485" y="410" width="180" height="40" as="geometry" />
        </mxCell>
        <mxCell id="qpwxXITlCsxlHyddIbBQ-6" value="" style="shape=tableRow;horizontal=0;startSize=0;swimlaneHead=0;swimlaneBody=0;strokeColor=inherit;top=0;left=0;bottom=0;right=0;collapsible=0;dropTarget=0;fillColor=none;points=[[0,0.5],[1,0.5]];portConstraint=eastwest;fontSize=16;" vertex="1" parent="qpwxXITlCsxlHyddIbBQ-5">
          <mxGeometry width="180" height="40" as="geometry" />
        </mxCell>
        <mxCell id="qpwxXITlCsxlHyddIbBQ-7" value="" style="shape=partialRectangle;html=1;whiteSpace=wrap;connectable=0;strokeColor=inherit;overflow=hidden;fillColor=none;top=0;left=0;bottom=0;right=0;pointerEvents=1;fontSize=16;" vertex="1" parent="qpwxXITlCsxlHyddIbBQ-6">
          <mxGeometry width="60" height="40" as="geometry">
            <mxRectangle width="60" height="40" as="alternateBounds" />
          </mxGeometry>
        </mxCell>
        <mxCell id="qpwxXITlCsxlHyddIbBQ-8" value="" style="shape=partialRectangle;html=1;whiteSpace=wrap;connectable=0;strokeColor=inherit;overflow=hidden;fillColor=none;top=0;left=0;bottom=0;right=0;pointerEvents=1;fontSize=16;" vertex="1" parent="qpwxXITlCsxlHyddIbBQ-6">
          <mxGeometry x="60" width="60" height="40" as="geometry">
            <mxRectangle width="60" height="40" as="alternateBounds" />
          </mxGeometry>
        </mxCell>
        <mxCell id="qpwxXITlCsxlHyddIbBQ-9" value="" style="shape=partialRectangle;html=1;whiteSpace=wrap;connectable=0;strokeColor=inherit;overflow=hidden;fillColor=none;top=0;left=0;bottom=0;right=0;pointerEvents=1;fontSize=16;" vertex="1" parent="qpwxXITlCsxlHyddIbBQ-6">
          <mxGeometry x="120" width="60" height="40" as="geometry">
            <mxRectangle width="60" height="40" as="alternateBounds" />
          </mxGeometry>
        </mxCell>
        <mxCell id="qpwxXITlCsxlHyddIbBQ-19" value="" style="shape=table;startSize=0;container=1;collapsible=0;childLayout=tableLayout;fontSize=16;fillColor=#a20025;fontColor=#ffffff;strokeColor=#6F0000;swimlaneFillColor=default;rounded=1;shadow=1;" vertex="1" parent="1">
          <mxGeometry x="730" y="510" width="180" height="40" as="geometry" />
        </mxCell>
        <mxCell id="qpwxXITlCsxlHyddIbBQ-20" value="" style="shape=tableRow;horizontal=0;startSize=0;swimlaneHead=0;swimlaneBody=0;strokeColor=inherit;top=0;left=0;bottom=0;right=0;collapsible=0;dropTarget=0;fillColor=none;points=[[0,0.5],[1,0.5]];portConstraint=eastwest;fontSize=16;" vertex="1" parent="qpwxXITlCsxlHyddIbBQ-19">
          <mxGeometry width="180" height="40" as="geometry" />
        </mxCell>
        <mxCell id="qpwxXITlCsxlHyddIbBQ-21" value="" style="shape=partialRectangle;html=1;whiteSpace=wrap;connectable=0;strokeColor=inherit;overflow=hidden;fillColor=none;top=0;left=0;bottom=0;right=0;pointerEvents=1;fontSize=16;" vertex="1" parent="qpwxXITlCsxlHyddIbBQ-20">
          <mxGeometry width="60" height="40" as="geometry">
            <mxRectangle width="60" height="40" as="alternateBounds" />
          </mxGeometry>
        </mxCell>
        <mxCell id="qpwxXITlCsxlHyddIbBQ-22" value="" style="shape=partialRectangle;html=1;whiteSpace=wrap;connectable=0;strokeColor=inherit;overflow=hidden;fillColor=none;top=0;left=0;bottom=0;right=0;pointerEvents=1;fontSize=16;" vertex="1" parent="qpwxXITlCsxlHyddIbBQ-20">
          <mxGeometry x="60" width="60" height="40" as="geometry">
            <mxRectangle width="60" height="40" as="alternateBounds" />
          </mxGeometry>
        </mxCell>
        <mxCell id="qpwxXITlCsxlHyddIbBQ-23" value="" style="shape=partialRectangle;html=1;whiteSpace=wrap;connectable=0;strokeColor=inherit;overflow=hidden;fillColor=none;top=0;left=0;bottom=0;right=0;pointerEvents=1;fontSize=16;" vertex="1" parent="qpwxXITlCsxlHyddIbBQ-20">
          <mxGeometry x="120" width="60" height="40" as="geometry">
            <mxRectangle width="60" height="40" as="alternateBounds" />
          </mxGeometry>
        </mxCell>
        <mxCell id="qpwxXITlCsxlHyddIbBQ-24" value="正常的队列,等待消费者去支付消费" style="text;html=1;align=center;verticalAlign=middle;whiteSpace=wrap;rounded=0;" vertex="1" parent="1">
          <mxGeometry x="580" y="370" width="190" height="10" as="geometry" />
        </mxCell>
        <mxCell id="qpwxXITlCsxlHyddIbBQ-25" value="死信(exchange)" style="rounded=1;whiteSpace=wrap;html=1;fillColor=#d80073;fontColor=#ffffff;strokeColor=#A50040;swimlaneFillColor=default;shadow=1;" vertex="1" parent="1">
          <mxGeometry x="500" y="510" width="150" height="35" as="geometry" />
        </mxCell>
        <mxCell id="qpwxXITlCsxlHyddIbBQ-27" style="edgeStyle=orthogonalEdgeStyle;rounded=0;orthogonalLoop=1;jettySize=auto;html=1;exitX=1;exitY=0.5;exitDx=0;exitDy=0;entryX=-0.006;entryY=0.43;entryDx=0;entryDy=0;entryPerimeter=0;flowAnimation=1;shadow=1;strokeWidth=3;strokeColor=#CC0000;" edge="1" parent="1" source="qpwxXITlCsxlHyddIbBQ-25" target="qpwxXITlCsxlHyddIbBQ-20">
          <mxGeometry relative="1" as="geometry" />
        </mxCell>
        <mxCell id="qpwxXITlCsxlHyddIbBQ-28" value="订单超时,投递到死信交换机" style="text;html=1;align=center;verticalAlign=middle;whiteSpace=wrap;rounded=0;" vertex="1" parent="1">
          <mxGeometry x="560" y="470" width="190" height="20" as="geometry" />
        </mxCell>
        <mxCell id="qpwxXITlCsxlHyddIbBQ-30" value="死信队列" style="text;html=1;align=center;verticalAlign=middle;whiteSpace=wrap;rounded=0;" vertex="1" parent="1">
          <mxGeometry x="740" y="490" width="190" height="10" as="geometry" />
        </mxCell>
        <mxCell id="qpwxXITlCsxlHyddIbBQ-34" style="edgeStyle=orthogonalEdgeStyle;rounded=0;hachureGap=4;orthogonalLoop=1;jettySize=auto;html=1;entryX=1;entryY=0.5;entryDx=0;entryDy=0;fontFamily=Architects Daughter;fontSource=https%3A%2F%2Ffonts.googleapis.com%2Fcss%3Ffamily%3DArchitects%2BDaughter;shadow=1;flowAnimation=1;strokeWidth=2;strokeColor=#009900;" edge="1" parent="1" source="qpwxXITlCsxlHyddIbBQ-33" target="qpwxXITlCsxlHyddIbBQ-6">
          <mxGeometry relative="1" as="geometry" />
        </mxCell>
        <mxCell id="qpwxXITlCsxlHyddIbBQ-33" value="用户支付(消费者·)" style="shape=umlActor;verticalLabelPosition=bottom;verticalAlign=top;html=1;outlineConnect=0;hachureGap=4;fontFamily=Architects Daughter;fontSource=https%3A%2F%2Ffonts.googleapis.com%2Fcss%3Ffamily%3DArchitects%2BDaughter;shadow=1;" vertex="1" parent="1">
          <mxGeometry x="1090" y="354.5" width="30" height="60" as="geometry" />
        </mxCell>
        <mxCell id="qpwxXITlCsxlHyddIbBQ-36" style="edgeStyle=orthogonalEdgeStyle;rounded=0;hachureGap=4;orthogonalLoop=1;jettySize=auto;html=1;entryX=1;entryY=0.5;entryDx=0;entryDy=0;fontFamily=Architects Daughter;fontSource=https%3A%2F%2Ffonts.googleapis.com%2Fcss%3Ffamily%3DArchitects%2BDaughter;shadow=1;flowAnimation=1;strokeWidth=3;strokeColor=#CC0000;" edge="1" parent="1" source="qpwxXITlCsxlHyddIbBQ-35" target="qpwxXITlCsxlHyddIbBQ-20">
          <mxGeometry relative="1" as="geometry" />
        </mxCell>
        <mxCell id="qpwxXITlCsxlHyddIbBQ-35" value="固定的消费者: 把订单状态改为已取消" style="shape=umlActor;verticalLabelPosition=bottom;verticalAlign=top;html=1;outlineConnect=0;hachureGap=4;fontFamily=Architects Daughter;fontSource=https%3A%2F%2Ffonts.googleapis.com%2Fcss%3Ffamily%3DArchitects%2BDaughter;shadow=1;" vertex="1" parent="1">
          <mxGeometry x="1090" y="485" width="30" height="60" as="geometry" />
        </mxCell>
      </root>
    </mxGraphModel>
  </diagram>
</mxfile>
